<svg width="47" height="36" viewBox="0 0 47 36" fill="none" xmlns="http://www.w3.org/2000/svg">
<path fill-rule="evenodd" clip-rule="evenodd" d="M13.277 32.0955V33.9999V35.9042H12.4385V35.4418C12.1726 35.7848 11.769 36 11.2205 36C10.1391 36 9.29134 35.1636 9.29134 33.9999C9.29134 32.837 10.1391 31.9997 11.2205 31.9997C11.769 31.9997 12.1726 32.215 12.4385 32.5579V32.0955H13.277ZM11.3248 32.7804C10.5989 32.7804 10.1548 33.3304 10.1548 33.9999C10.1548 34.6693 10.5989 35.2193 11.3248 35.2193C12.0183 35.2193 12.4865 34.693 12.4865 33.9999C12.4865 33.3067 12.0183 32.7804 11.3248 32.7804ZM41.6128 33.9999C41.6128 33.3304 42.057 32.7804 42.7828 32.7804C43.4773 32.7804 43.9446 33.3067 43.9446 33.9999C43.9446 34.693 43.4773 35.2193 42.7828 35.2193C42.057 35.2193 41.6128 34.6693 41.6128 33.9999ZM44.736 30.566V33.9999V35.9042H43.8965V35.4418C43.6306 35.7848 43.227 36 42.6785 36C41.5971 36 40.7494 35.1636 40.7494 33.9999C40.7494 32.837 41.5971 31.9997 42.6785 31.9997C43.227 31.9997 43.6306 32.215 43.8965 32.5579V30.566H44.736ZM23.6855 32.7412C24.2257 32.7412 24.5729 33.076 24.6616 33.6651H22.6604C22.75 33.1152 23.088 32.7412 23.6855 32.7412ZM21.7813 33.9999C21.7813 32.8124 22.5717 31.9997 23.7021 31.9997C24.7825 31.9997 25.525 32.8124 25.5333 33.9999C25.5333 34.1111 25.525 34.2151 25.5167 34.3182H22.653C22.774 35.004 23.2662 35.2512 23.8064 35.2512C24.1934 35.2512 24.6052 35.1071 24.9284 34.8526L25.3394 35.4664C24.8712 35.8568 24.3393 36 23.7584 36C22.6041 36 21.7813 35.2111 21.7813 33.9999ZM33.827 33.9999C33.827 33.3304 34.2712 32.7804 34.9971 32.7804C35.6906 32.7804 36.1588 33.3067 36.1588 33.9999C36.1588 34.693 35.6906 35.2193 34.9971 35.2193C34.2712 35.2193 33.827 34.6693 33.827 33.9999ZM36.9493 32.0955V33.9999V35.9042H36.1108V35.4418C35.8439 35.7848 35.4413 36 34.8927 36C33.8113 36 32.9636 35.1636 32.9636 33.9999C32.9636 32.837 33.8113 31.9997 34.8927 31.9997C35.4413 31.9997 35.8439 32.215 36.1108 32.5579V32.0955H36.9493ZM29.0914 33.9999C29.0914 35.1554 29.9059 36 31.1489 36C31.7298 36 32.1167 35.8723 32.5359 35.5458L32.1333 34.8764C31.8184 35.0998 31.4878 35.2193 31.124 35.2193C30.4544 35.2111 29.9622 34.7332 29.9622 33.9999C29.9622 33.2666 30.4544 32.7887 31.124 32.7805C31.4878 32.7805 31.8184 32.8999 32.1333 33.1234L32.5359 32.4539C32.1167 32.1274 31.7298 31.9997 31.1489 31.9997C29.9059 31.9997 29.0914 32.8443 29.0914 33.9999ZM38.8857 32.5579C39.1036 32.2232 39.4185 31.9997 39.9024 31.9997C40.0723 31.9997 40.3143 32.0317 40.4999 32.1037L40.2413 32.8844C40.064 32.8124 39.8867 32.7887 39.7168 32.7887C39.1682 32.7887 38.894 33.1389 38.894 33.7691V35.9042H38.0545V32.0955H38.8857V32.5579ZM17.4243 32.3983C17.0207 32.1356 16.4648 31.9997 15.8516 31.9997C14.8746 31.9997 14.2457 32.4621 14.2457 33.2191C14.2457 33.8403 14.7139 34.2233 15.5764 34.3428L15.9726 34.3984C16.4325 34.4623 16.6495 34.5818 16.6495 34.797C16.6495 35.0916 16.3429 35.2594 15.7703 35.2594C15.1895 35.2594 14.7702 35.0761 14.4876 34.8608L14.0924 35.5057C14.5523 35.8404 15.1331 36 15.762 36C16.8757 36 17.5212 35.482 17.5212 34.7569C17.5212 34.0874 17.0133 33.7372 16.1739 33.6177L15.7786 33.5612C15.4157 33.5137 15.1248 33.4426 15.1248 33.1872C15.1248 32.9081 15.3991 32.7412 15.859 32.7412C16.3512 32.7412 16.8277 32.9246 17.0613 33.0677L17.4243 32.3983ZM27.2279 32.5579C27.4449 32.2232 27.7598 31.9997 28.2437 31.9997C28.4136 31.9997 28.6556 32.0317 28.8412 32.1037L28.5826 32.8844C28.4053 32.8124 28.228 32.7887 28.0581 32.7887C27.5096 32.7887 27.2353 33.1389 27.2353 33.7691V35.9042H26.3968V32.0955H27.2279V32.5579ZM21.0876 32.0955H19.7162V30.9399H18.8685V32.0955H18.0863V32.8525H18.8685V34.59C18.8685 35.4737 19.2157 36 20.2075 36C20.5714 36 20.9906 35.8887 21.2566 35.7054L21.0146 34.9958C20.7644 35.139 20.4901 35.2111 20.2722 35.2111C19.8529 35.2111 19.7162 34.9557 19.7162 34.5735V32.8525H21.0876V32.0955ZM8.54973 33.5137V35.9042H7.70199V33.7846C7.70199 33.1389 7.42772 32.7805 6.85517 32.7805C6.29831 32.7805 5.91138 33.1316 5.91138 33.7928V35.9042H5.06363V33.7846C5.06363 33.1389 4.78198 32.7805 4.22512 32.7805C3.65165 32.7805 3.28042 33.1316 3.28042 33.7928V35.9042H2.43359L2.43359 32.0955H3.27303V32.5652C3.58793 32.1192 3.99056 31.9997 4.40243 31.9997C4.9916 31.9997 5.41086 32.2551 5.67682 32.6774C6.03235 32.1429 6.54026 31.9915 7.03247 31.9997C7.96887 32.0079 8.54973 32.6136 8.54973 33.5137Z" fill="white"/>
<path d="M29.8543 25.6235H17.1455V3.06665H29.8543V25.6235Z" fill="#FF5F00"/>
<path d="M17.9523 14.3457C17.9523 9.76996 20.1215 5.69399 23.4995 3.06728C21.0293 1.1465 17.9116 4.76837e-05 14.5234 4.76837e-05C6.50215 4.76837e-05 0 6.42272 0 14.3457C0 22.2687 6.50215 28.6914 14.5234 28.6914C17.9116 28.6914 21.0293 27.545 23.4995 25.6242C20.1215 22.9975 17.9523 18.9215 17.9523 14.3457Z" fill="#EB001B"/>
<path d="M47.0005 14.3457C47.0005 22.2687 40.4983 28.6914 32.477 28.6914C29.0888 28.6914 25.9712 27.545 23.5 25.6242C26.879 22.9975 29.0482 18.9215 29.0482 14.3457C29.0482 9.76996 26.879 5.69399 23.5 3.06728C25.9712 1.1465 29.0888 4.76837e-05 32.477 4.76837e-05C40.4983 4.76837e-05 47.0005 6.42272 47.0005 14.3457Z" fill="#F79E1B"/>
</svg>
